<svg xmlns="http://www.w3.org/2000/svg" xmlns:xlink="http://www.w3.org/1999/xlink" width="500" zoomAndPan="magnify" viewBox="0 0 375 374.999991" height="500" preserveAspectRatio="xMidYMid meet" version="1.0"><defs><g/><clipPath id="bd2db5d3fd"><path d="M 83.019531 296 L 221 296 L 221 362 L 83.019531 362 Z M 83.019531 296 " clip-rule="nonzero"/></clipPath><clipPath id="3dd09e7646"><path d="M 238 296 L 374.761719 296 L 374.761719 362 L 238 362 Z M 238 296 " clip-rule="nonzero"/></clipPath><clipPath id="099ff85e07"><path d="M 193 189.578125 L 264 189.578125 L 264 315 L 193 315 Z M 193 189.578125 " clip-rule="nonzero"/></clipPath><clipPath id="2c0f4c4a33"><path d="M 140.089844 260.941406 L 171.589844 260.941406 L 171.589844 292.441406 L 140.089844 292.441406 Z M 140.089844 260.941406 " clip-rule="nonzero"/></clipPath><clipPath id="c3fe63d3cf"><path d="M 21.589844 96.875 L 53.089844 96.875 L 53.089844 128.375 L 21.589844 128.375 Z M 21.589844 96.875 " clip-rule="nonzero"/></clipPath></defs><path fill="#a6a6a6" d="M 305.992188 246.847656 C 305.515625 240.539062 304.71875 234.25 303.648438 228.015625 C 302.890625 223.605469 302 219.207031 300.925781 214.863281 C 300.808594 214.898438 300.695312 214.929688 300.578125 214.960938 C 292.671875 217.277344 284.902344 220.136719 277.34375 223.414062 C 271.480469 225.949219 265.796875 228.816406 260.167969 231.851562 C 270.175781 222.367188 283.285156 215.503906 296.285156 211.105469 C 298.917969 210.203125 301.769531 209.433594 304.472656 208.707031 C 305.207031 211.398438 305.960938 214.273438 306.5 217 C 307.789062 223.371094 308.558594 229.875 308.726562 236.371094 C 308.910156 243.839844 308.359375 251.382812 306.59375 258.652344 C 306.460938 254.703125 306.300781 250.773438 305.992188 246.847656 Z M 305.992188 246.847656 " fill-opacity="1" fill-rule="nonzero"/><g clip-path="url(#bd2db5d3fd)"><path fill="#a6a6a6" d="M 84.183594 307.542969 C 91.980469 302.960938 100.308594 299.25 108.925781 296.511719 L 109.761719 296.253906 C 108.707031 296.75 107.664062 297.257812 106.621094 297.761719 C 99.824219 301.101562 93.199219 304.832031 86.929688 309.078125 C 91.828125 315.902344 97.351562 322.316406 103.296875 328.238281 C 109.550781 334.425781 116.382812 340.0625 123.824219 344.765625 C 137.152344 353.148438 150.644531 357.5 166.46875 357.289062 C 176.914062 357.179688 187.277344 355.21875 197.261719 352.222656 C 205.046875 349.917969 212.644531 346.761719 220.007812 343.433594 C 220.007812 343.433594 219.753906 343.464844 219.753906 343.464844 L 220 343.394531 L 220.117188 343.363281 C 220.117188 343.363281 220.015625 343.433594 220.015625 343.433594 C 219.089844 344.042969 217.808594 344.804688 216.890625 345.386719 C 198.101562 356.738281 174.828125 364.035156 152.753906 361.070312 C 136.425781 358.90625 121.476562 350.59375 109.179688 339.894531 C 99.179688 331.164062 90.613281 320.84375 83.765625 309.484375 L 83.023438 308.230469 C 83.023438 308.230469 84.1875 307.535156 84.1875 307.535156 Z M 84.183594 307.542969 " fill-opacity="1" fill-rule="nonzero"/></g><g clip-path="url(#3dd09e7646)"><path fill="#a6a6a6" d="M 281.984375 356.695312 C 291.433594 357.757812 301.113281 357.5 310.359375 355.199219 C 323.515625 351.945312 335.394531 344.90625 345.804688 336.324219 C 355.355469 328.394531 363.828125 319.144531 371.085938 309.078125 C 363.851562 304.179688 356.15625 299.96875 348.25 296.257812 C 357.167969 299.011719 365.773438 302.824219 373.824219 307.546875 L 374.984375 308.238281 C 374.984375 308.238281 374.246094 309.484375 374.246094 309.484375 C 364.570312 325.421875 351.597656 339.609375 335.78125 349.605469 C 326.527344 355.417969 316.132812 359.636719 305.257812 361.078125 C 284.972656 363.773438 264.265625 357.960938 246.460938 348.441406 C 243.929688 347.089844 241.464844 345.609375 239.039062 344.078125 C 238.691406 343.863281 238.34375 343.644531 238.003906 343.417969 C 245.421875 346.878906 252.953125 349.882812 260.746094 352.230469 C 267.679688 354.3125 274.785156 355.878906 281.984375 356.691406 Z M 281.984375 356.695312 " fill-opacity="1" fill-rule="nonzero"/></g><path fill="#a6a6a6" d="M 169.839844 219.078125 C 165.636719 217.535156 161.386719 216.101562 157.085938 214.863281 C 157.058594 214.980469 157.027344 215.097656 157 215.214844 C 155.054688 223.21875 153.644531 231.375 152.699219 239.558594 C 151.964844 245.902344 151.605469 252.261719 151.417969 258.652344 C 148.207031 245.242188 148.816406 230.460938 151.511719 217 C 152.046875 214.269531 152.804688 211.410156 153.527344 208.710938 C 156.226562 209.417969 159.097656 210.199219 161.726562 211.101562 C 167.890625 213.167969 173.902344 215.757812 179.617188 218.859375 C 186.183594 222.429688 192.433594 226.679688 197.847656 231.847656 C 194.359375 229.984375 190.878906 228.160156 187.324219 226.464844 C 181.625 223.722656 175.773438 221.265625 169.839844 219.078125 Z M 169.839844 219.078125 " fill-opacity="1" fill-rule="nonzero"/><path fill="#a6a6a6" d="M 232.433594 338.527344 C 253.300781 342.578125 275.648438 343.132812 296.039062 336.382812 C 319.898438 328.707031 336.332031 308.316406 346.539062 286.210938 C 347.585938 283.964844 348.597656 281.613281 349.527344 279.316406 C 351.09375 275.40625 352.519531 271.421875 353.734375 267.390625 C 348.804688 266.136719 343.78125 265.1875 338.75 264.46875 C 323.195312 262.292969 307.085938 262.425781 291.875 266.648438 C 287.128906 267.988281 282.476562 269.730469 278.070312 271.960938 C 273.617188 274.1875 269.433594 276.917969 265.496094 279.96875 C 269.476562 276.167969 273.941406 272.78125 278.75 270.0625 C 281.574219 268.4375 284.605469 266.996094 287.628906 265.78125 C 302.957031 259.675781 319.949219 258.375 336.269531 259.867188 C 344.125 260.589844 351.9375 261.960938 359.546875 264.042969 C 357.585938 271.949219 354.910156 279.671875 351.59375 287.109375 C 345.398438 300.953125 336.933594 314.003906 325.609375 324.207031 C 319.4375 329.777344 312.34375 334.367188 304.636719 337.523438 C 286.605469 344.917969 266.335938 345.382812 247.34375 342.09375 C 242.738281 341.28125 238.128906 340.238281 233.644531 338.917969 L 232.421875 338.546875 C 232.421875 338.546875 232.433594 338.53125 232.433594 338.53125 Z M 232.433594 338.527344 " fill-opacity="1" fill-rule="nonzero"/><g clip-path="url(#099ff85e07)"><path fill="#a6a6a6" d="M 194.710938 278.621094 C 188.636719 251.902344 200.195312 224.648438 216.445312 203.765625 C 220.308594 198.785156 224.484375 194.058594 229.019531 189.667969 C 233.722656 194.34375 238.019531 199.386719 241.972656 204.695312 C 245.582031 209.554688 248.894531 214.660156 251.789062 219.976562 C 257.5625 230.578125 261.832031 242.160156 263.195312 254.199219 C 263.375 255.878906 263.523438 257.652344 263.578125 259.347656 C 263.65625 261.066406 263.628906 262.785156 263.574219 264.5 C 263.375 260.222656 262.839844 255.976562 261.949219 251.800781 C 261.167969 248.082031 260.09375 244.339844 258.835938 240.753906 C 256.441406 233.949219 253.285156 227.414062 249.625 221.203125 C 246.398438 215.726562 242.746094 210.492188 238.796875 205.511719 C 237.496094 203.851562 236.121094 202.21875 234.746094 200.617188 C 232.898438 198.492188 230.996094 196.40625 229.03125 194.402344 C 212.507812 211.921875 198.554688 234.6875 196.105469 258.949219 C 195.386719 266.234375 195.929688 273.605469 197.40625 280.773438 C 199.921875 292.867188 205.003906 304.308594 211.257812 314.921875 C 204.664062 305.609375 199.382812 295.351562 196.15625 284.371094 C 195.589844 282.503906 195.148438 280.523438 194.714844 278.625 Z M 194.710938 278.621094 " fill-opacity="1" fill-rule="nonzero"/></g><path fill="#a6a6a6" d="M 211.257812 314.921875 C 213.433594 317.726562 215.644531 320.484375 217.945312 323.183594 C 221.433594 327.273438 225.09375 331.25 228.953125 334.996094 C 229.222656 334.707031 229.488281 334.417969 229.742188 334.132812 C 236.265625 326.917969 242.152344 319.109375 247.273438 310.835938 C 255.914062 296.800781 262.289062 281.050781 263.578125 264.507812 C 264.726562 279.179688 260.199219 294.066406 253.433594 306.964844 C 248.996094 315.410156 243.460938 323.28125 237.1875 330.457031 C 234.597656 333.425781 231.835938 336.265625 228.949219 338.960938 L 228.019531 337.976562 C 224.738281 334.503906 221.710938 330.800781 218.890625 326.953125 C 216.101562 323.109375 213.496094 319.109375 211.253906 314.921875 Z M 211.257812 314.921875 " fill-opacity="1" fill-rule="nonzero"/><path fill="#a6a6a6" d="M 154.59375 338.011719 C 134.425781 330.25 119.507812 312.957031 109.796875 294.125 C 108.417969 291.472656 107.09375 288.660156 105.902344 285.917969 C 102.820312 278.851562 100.328125 271.527344 98.472656 264.039062 C 107.0625 261.695312 115.902344 260.246094 124.78125 259.617188 C 140.414062 258.546875 156.507812 260.085938 171.097656 266.0625 C 172.925781 266.820312 174.847656 267.707031 176.609375 268.609375 C 177.644531 269.136719 178.925781 269.859375 179.929688 270.433594 C 184.476562 273.101562 188.730469 276.335938 192.523438 279.96875 C 188.585938 276.917969 184.402344 274.1875 179.949219 271.960938 C 175.542969 269.730469 170.890625 267.984375 166.140625 266.648438 C 151.414062 262.558594 135.828125 262.308594 120.730469 264.269531 C 115.203125 265.003906 109.6875 266.019531 104.28125 267.394531 C 105.015625 269.828125 105.828125 272.25 106.695312 274.636719 C 110.125 284.027344 114.453125 293.140625 119.851562 301.558594 C 127.410156 313.375 137.207031 324.03125 149.511719 330.90625 C 160.4375 337 172.832031 340.003906 185.238281 341.0625 C 191.945312 341.632812 198.707031 341.644531 205.433594 341.199219 C 212.183594 340.75 218.917969 339.867188 225.59375 338.550781 L 224.371094 338.921875 C 223.960938 339.042969 223.554688 339.15625 223.144531 339.273438 C 220.683594 339.96875 218.199219 340.578125 215.699219 341.117188 C 195.59375 345.375 173.976562 345.535156 154.597656 338.019531 Z M 154.59375 338.011719 " fill-opacity="1" fill-rule="nonzero"/><g clip-path="url(#2c0f4c4a33)"><path fill="#a6a6a6" d="M 171.929688 276.867188 C 157.390625 277.625 156.773438 278.246094 156.011719 292.78125 C 155.246094 278.246094 154.625 277.625 140.089844 276.867188 C 154.625 276.097656 155.246094 275.480469 156.011719 260.941406 C 156.773438 275.480469 157.390625 276.097656 171.929688 276.867188 Z M 171.929688 276.867188 " fill-opacity="1" fill-rule="nonzero"/></g><g fill="#000000" fill-opacity="1"><g transform="translate(-3.492088, 293.009697)"><g><path d="M 6.15625 0 L 6.15625 -8.140625 L 8.546875 -8.140625 C 11.191406 -8.140625 13.539062 -8.46875 15.59375 -9.125 C 17.644531 -9.789062 19.265625 -11.082031 20.453125 -13 C 21.648438 -14.925781 22.25 -17.742188 22.25 -21.453125 L 22.25 -120.171875 C 22.25 -124.003906 21.6875 -126.878906 20.5625 -128.796875 C 19.4375 -130.722656 17.878906 -132.015625 15.890625 -132.671875 C 13.898438 -133.335938 11.710938 -133.671875 9.328125 -133.671875 L 6.15625 -133.671875 L 6.15625 -141.8125 L 46.484375 -141.8125 L 80.046875 -27.015625 L 113.421875 -141.8125 L 153.34375 -141.8125 L 153.34375 -133.671875 L 149.96875 -133.671875 C 147.707031 -133.671875 145.617188 -133.335938 143.703125 -132.671875 C 141.785156 -132.015625 140.265625 -130.691406 139.140625 -128.703125 C 138.015625 -126.722656 137.453125 -123.742188 137.453125 -119.765625 L 137.453125 -22.046875 C 137.453125 -18.203125 137.976562 -15.253906 139.03125 -13.203125 C 140.09375 -11.148438 141.613281 -9.789062 143.59375 -9.125 C 145.582031 -8.46875 147.835938 -8.140625 150.359375 -8.140625 L 153.34375 -8.140625 L 153.34375 0 L 105.265625 0 L 105.265625 -8.140625 L 107.0625 -8.140625 C 109.84375 -8.140625 112.125 -8.503906 113.90625 -9.234375 C 115.695312 -9.960938 117.054688 -11.316406 117.984375 -13.296875 C 118.910156 -15.285156 119.375 -18.203125 119.375 -22.046875 L 119.375 -127.3125 L 81.828125 0 L 71.109375 0 L 32.96875 -126.921875 L 32.96875 -22.4375 C 32.96875 -18.332031 33.460938 -15.253906 34.453125 -13.203125 C 35.453125 -11.148438 36.878906 -9.789062 38.734375 -9.125 C 40.585938 -8.46875 42.707031 -8.140625 45.09375 -8.140625 L 46.671875 -8.140625 L 46.671875 0 Z M 6.15625 0 "/></g></g></g><g fill="#000000" fill-opacity="1"><g transform="translate(147.248887, 206.946219)"><g><path d="M 6.171875 0 L 6.171875 -8.15625 L 9.546875 -8.15625 C 12.066406 -8.15625 14.289062 -8.519531 16.21875 -9.25 C 18.144531 -9.976562 19.632812 -11.335938 20.6875 -13.328125 C 21.75 -15.316406 22.28125 -18.300781 22.28125 -22.28125 L 22.28125 -120.390625 C 22.28125 -124.234375 21.71875 -127.113281 20.59375 -129.03125 C 19.46875 -130.957031 17.910156 -132.253906 15.921875 -132.921875 C 13.929688 -133.585938 11.609375 -133.921875 8.953125 -133.921875 L 6.171875 -133.921875 L 6.171875 -142.078125 L 56.3125 -142.078125 L 56.3125 -133.921875 L 53.71875 -133.921875 C 51.332031 -133.921875 49.175781 -133.585938 47.25 -132.921875 C 45.332031 -132.253906 43.84375 -130.925781 42.78125 -128.9375 C 41.71875 -126.945312 41.1875 -123.960938 41.1875 -119.984375 L 41.1875 -79.203125 L 94.3125 -79.203125 L 94.3125 -119.78125 C 94.3125 -123.894531 93.8125 -126.945312 92.8125 -128.9375 C 91.820312 -130.925781 90.332031 -132.253906 88.34375 -132.921875 C 86.351562 -133.585938 84.097656 -133.921875 81.578125 -133.921875 L 79 -133.921875 L 79 -142.078125 L 129.34375 -142.078125 L 129.34375 -133.921875 L 125.953125 -133.921875 C 123.566406 -133.921875 121.378906 -133.585938 119.390625 -132.921875 C 117.398438 -132.253906 115.875 -130.925781 114.8125 -128.9375 C 113.75 -126.945312 113.21875 -123.894531 113.21875 -119.78125 L 113.21875 -21.484375 C 113.21875 -17.773438 113.78125 -14.957031 114.90625 -13.03125 C 116.039062 -11.101562 117.566406 -9.804688 119.484375 -9.140625 C 121.410156 -8.484375 123.566406 -8.15625 125.953125 -8.15625 L 129.34375 -8.15625 L 129.34375 0 L 79 0 L 79 -8.15625 L 81.578125 -8.15625 C 84.097656 -8.15625 86.351562 -8.519531 88.34375 -9.25 C 90.332031 -9.976562 91.820312 -11.367188 92.8125 -13.421875 C 93.8125 -15.484375 94.3125 -18.503906 94.3125 -22.484375 L 94.3125 -69.453125 L 41.1875 -69.453125 L 41.1875 -22.28125 C 41.1875 -18.300781 41.71875 -15.316406 42.78125 -13.328125 C 43.84375 -11.335938 45.332031 -9.976562 47.25 -9.25 C 49.175781 -8.519531 51.332031 -8.15625 53.71875 -8.15625 L 56.3125 -8.15625 L 56.3125 0 Z M 6.171875 0 "/></g></g></g><g fill="#000000" fill-opacity="1"><g transform="translate(35.685317, 332.53381)"><g><path d="M 0.890625 0 L 0.890625 -1.171875 L 1.234375 -1.171875 C 1.640625 -1.171875 1.988281 -1.21875 2.28125 -1.3125 C 2.570312 -1.414062 2.800781 -1.613281 2.96875 -1.90625 C 3.132812 -2.207031 3.21875 -2.648438 3.21875 -3.234375 L 3.21875 -17.359375 C 3.21875 -17.929688 3.132812 -18.351562 2.96875 -18.625 C 2.800781 -18.90625 2.570312 -19.085938 2.28125 -19.171875 C 2 -19.265625 1.671875 -19.3125 1.296875 -19.3125 L 0.890625 -19.3125 L 0.890625 -20.484375 L 5.625 -20.484375 L 14.28125 -4.390625 L 14.28125 -17.359375 C 14.28125 -17.910156 14.191406 -18.320312 14.015625 -18.59375 C 13.847656 -18.875 13.617188 -19.0625 13.328125 -19.15625 C 13.046875 -19.257812 12.722656 -19.3125 12.359375 -19.3125 L 11.96875 -19.3125 L 11.96875 -20.484375 L 18.15625 -20.484375 L 18.15625 -19.3125 L 17.734375 -19.3125 C 17.367188 -19.3125 17.039062 -19.253906 16.75 -19.140625 C 16.46875 -19.035156 16.242188 -18.835938 16.078125 -18.546875 C 15.910156 -18.265625 15.828125 -17.828125 15.828125 -17.234375 L 15.828125 0 L 13.9375 0 L 4.765625 -16.890625 L 4.765625 -3.234375 C 4.765625 -2.648438 4.835938 -2.207031 4.984375 -1.90625 C 5.140625 -1.613281 5.363281 -1.414062 5.65625 -1.3125 C 5.957031 -1.21875 6.289062 -1.171875 6.65625 -1.171875 L 7.078125 -1.171875 L 7.078125 0 Z M 0.890625 0 "/></g></g></g><g fill="#000000" fill-opacity="1"><g transform="translate(54.449353, 332.53381)"><g><path d="M 0.03125 0 L 0.03125 -1.171875 L 0.453125 -1.171875 C 0.785156 -1.171875 1.050781 -1.226562 1.25 -1.34375 C 1.445312 -1.457031 1.628906 -1.675781 1.796875 -2 C 1.972656 -2.332031 2.160156 -2.800781 2.359375 -3.40625 L 7.75 -20.484375 L 9.890625 -20.484375 L 15.4375 -2.546875 C 15.550781 -2.191406 15.675781 -1.914062 15.8125 -1.71875 C 15.957031 -1.53125 16.144531 -1.390625 16.375 -1.296875 C 16.601562 -1.210938 16.882812 -1.171875 17.21875 -1.171875 L 17.46875 -1.171875 L 17.46875 0 L 10.5 0 L 10.5 -1.171875 L 11.078125 -1.171875 C 11.566406 -1.171875 11.929688 -1.273438 12.171875 -1.484375 C 12.410156 -1.703125 12.53125 -2 12.53125 -2.375 C 12.53125 -2.507812 12.515625 -2.65625 12.484375 -2.8125 C 12.460938 -2.96875 12.429688 -3.140625 12.390625 -3.328125 C 12.347656 -3.515625 12.300781 -3.695312 12.25 -3.875 L 11.359375 -6.890625 L 5.015625 -6.890625 L 4.1875 -4.078125 C 4.132812 -3.921875 4.085938 -3.742188 4.046875 -3.546875 C 4.003906 -3.359375 3.960938 -3.175781 3.921875 -3 C 3.890625 -2.832031 3.875 -2.664062 3.875 -2.5 C 3.875 -2.09375 4 -1.769531 4.25 -1.53125 C 4.5 -1.289062 4.898438 -1.171875 5.453125 -1.171875 L 6.078125 -1.171875 L 6.078125 0 Z M 5.515625 -8.296875 L 10.90625 -8.296875 L 9.375 -13.625 C 9.226562 -14.195312 9.078125 -14.734375 8.921875 -15.234375 C 8.765625 -15.742188 8.632812 -16.21875 8.53125 -16.65625 C 8.425781 -17.101562 8.328125 -17.507812 8.234375 -17.875 C 8.160156 -17.507812 8.066406 -17.109375 7.953125 -16.671875 C 7.847656 -16.242188 7.734375 -15.804688 7.609375 -15.359375 C 7.492188 -14.910156 7.347656 -14.425781 7.171875 -13.90625 Z M 5.515625 -8.296875 "/></g></g></g><g fill="#000000" fill-opacity="1"><g transform="translate(71.922275, 332.53381)"><g><path d="M 0.890625 0 L 0.890625 -1.171875 L 1.375 -1.171875 C 1.71875 -1.171875 2.023438 -1.21875 2.296875 -1.3125 C 2.578125 -1.414062 2.800781 -1.613281 2.96875 -1.90625 C 3.132812 -2.207031 3.21875 -2.632812 3.21875 -3.1875 L 3.21875 -17.234375 C 3.21875 -17.828125 3.132812 -18.265625 2.96875 -18.546875 C 2.800781 -18.835938 2.578125 -19.035156 2.296875 -19.140625 C 2.023438 -19.253906 1.71875 -19.3125 1.375 -19.3125 L 0.890625 -19.3125 L 0.890625 -20.484375 L 8.265625 -20.484375 L 8.265625 -19.3125 L 7.75 -19.3125 C 7.40625 -19.3125 7.09375 -19.253906 6.8125 -19.140625 C 6.53125 -19.035156 6.3125 -18.835938 6.15625 -18.546875 C 6.007812 -18.265625 5.9375 -17.828125 5.9375 -17.234375 L 5.9375 -3.21875 C 5.9375 -2.644531 6.007812 -2.210938 6.15625 -1.921875 C 6.3125 -1.628906 6.535156 -1.429688 6.828125 -1.328125 C 7.117188 -1.222656 7.425781 -1.171875 7.75 -1.171875 L 8.265625 -1.171875 L 8.265625 0 Z M 0.890625 0 "/></g></g></g><g fill="#000000" fill-opacity="1"><g transform="translate(81.046061, 332.53381)"><g><path d="M 0.890625 0 L 0.890625 -1.171875 L 1.375 -1.171875 C 1.71875 -1.171875 2.023438 -1.21875 2.296875 -1.3125 C 2.578125 -1.414062 2.800781 -1.613281 2.96875 -1.90625 C 3.132812 -2.207031 3.21875 -2.632812 3.21875 -3.1875 L 3.21875 -17.265625 C 3.21875 -17.859375 3.132812 -18.296875 2.96875 -18.578125 C 2.800781 -18.867188 2.570312 -19.0625 2.28125 -19.15625 C 2 -19.257812 1.675781 -19.3125 1.3125 -19.3125 L 0.890625 -19.3125 L 0.890625 -20.484375 L 8.265625 -20.484375 L 8.265625 -19.3125 L 7.796875 -19.3125 C 7.421875 -19.3125 7.09375 -19.257812 6.8125 -19.15625 C 6.53125 -19.0625 6.3125 -18.875 6.15625 -18.59375 C 6.007812 -18.320312 5.9375 -17.910156 5.9375 -17.359375 L 5.9375 -1.40625 L 10.734375 -1.40625 C 11.210938 -1.40625 11.597656 -1.519531 11.890625 -1.75 C 12.179688 -1.976562 12.410156 -2.285156 12.578125 -2.671875 C 12.742188 -3.066406 12.851562 -3.503906 12.90625 -3.984375 L 13.171875 -6.140625 L 14.40625 -6.140625 L 14.234375 0 Z M 0.890625 0 "/></g></g></g><g fill="#000000" fill-opacity="1"><g transform="translate(96.395849, 332.53381)"><g><path d="M 6.390625 0.28125 C 5.492188 0.28125 4.710938 0.1875 4.046875 0 C 3.390625 -0.1875 2.847656 -0.457031 2.421875 -0.8125 C 1.992188 -1.164062 1.671875 -1.582031 1.453125 -2.0625 C 1.242188 -2.539062 1.140625 -3.066406 1.140625 -3.640625 C 1.140625 -4.046875 1.222656 -4.394531 1.390625 -4.6875 C 1.554688 -4.988281 1.773438 -5.21875 2.046875 -5.375 C 2.328125 -5.539062 2.664062 -5.625 3.0625 -5.625 C 3.101562 -4.757812 3.257812 -3.976562 3.53125 -3.28125 C 3.8125 -2.582031 4.210938 -2.035156 4.734375 -1.640625 C 5.253906 -1.253906 5.875 -1.0625 6.59375 -1.0625 C 7.644531 -1.0625 8.457031 -1.367188 9.03125 -1.984375 C 9.601562 -2.609375 9.890625 -3.488281 9.890625 -4.625 C 9.890625 -5.40625 9.75 -6.054688 9.46875 -6.578125 C 9.195312 -7.109375 8.773438 -7.585938 8.203125 -8.015625 C 7.628906 -8.441406 6.875 -8.890625 5.9375 -9.359375 C 4.957031 -9.867188 4.144531 -10.410156 3.5 -10.984375 C 2.851562 -11.554688 2.367188 -12.21875 2.046875 -12.96875 C 1.734375 -13.726562 1.578125 -14.632812 1.578125 -15.6875 C 1.578125 -16.71875 1.816406 -17.609375 2.296875 -18.359375 C 2.773438 -19.117188 3.421875 -19.707031 4.234375 -20.125 C 5.046875 -20.550781 5.96875 -20.765625 7 -20.765625 C 8.007812 -20.765625 8.863281 -20.609375 9.5625 -20.296875 C 10.257812 -19.984375 10.789062 -19.582031 11.15625 -19.09375 C 11.519531 -18.601562 11.703125 -18.082031 11.703125 -17.53125 C 11.703125 -16.914062 11.523438 -16.460938 11.171875 -16.171875 C 10.816406 -15.890625 10.304688 -15.75 9.640625 -15.75 C 9.640625 -16.382812 9.535156 -16.976562 9.328125 -17.53125 C 9.128906 -18.082031 8.820312 -18.53125 8.40625 -18.875 C 7.988281 -19.21875 7.441406 -19.390625 6.765625 -19.390625 C 5.847656 -19.390625 5.144531 -19.085938 4.65625 -18.484375 C 4.175781 -17.878906 3.9375 -17.0625 3.9375 -16.03125 C 3.9375 -15.320312 4.050781 -14.710938 4.28125 -14.203125 C 4.507812 -13.703125 4.898438 -13.242188 5.453125 -12.828125 C 6.003906 -12.421875 6.757812 -11.96875 7.71875 -11.46875 C 8.707031 -10.988281 9.539062 -10.472656 10.21875 -9.921875 C 10.90625 -9.367188 11.425781 -8.734375 11.78125 -8.015625 C 12.132812 -7.296875 12.3125 -6.421875 12.3125 -5.390625 C 12.3125 -4.171875 12.0625 -3.144531 11.5625 -2.3125 C 11.0625 -1.476562 10.363281 -0.835938 9.46875 -0.390625 C 8.582031 0.0546875 7.554688 0.28125 6.390625 0.28125 Z M 6.390625 0.28125 "/></g></g></g><g fill="#000000" fill-opacity="1"><g transform="translate(109.823314, 332.53381)"><g/></g></g><g fill="#000000" fill-opacity="1"><g transform="translate(116.508351, 332.53381)"><g><path d="M 6.71875 0.28125 C 5.46875 0.28125 4.398438 0.0351562 3.515625 -0.453125 C 2.640625 -0.953125 1.984375 -1.648438 1.546875 -2.546875 C 1.109375 -3.453125 0.890625 -4.503906 0.890625 -5.703125 C 0.890625 -6.796875 1.066406 -7.707031 1.421875 -8.4375 C 1.773438 -9.164062 2.253906 -9.773438 2.859375 -10.265625 C 3.472656 -10.765625 4.164062 -11.207031 4.9375 -11.59375 C 4.53125 -12.125 4.179688 -12.640625 3.890625 -13.140625 C 3.609375 -13.640625 3.394531 -14.148438 3.25 -14.671875 C 3.113281 -15.203125 3.046875 -15.789062 3.046875 -16.4375 C 3.046875 -17.28125 3.207031 -18.023438 3.53125 -18.671875 C 3.851562 -19.328125 4.359375 -19.835938 5.046875 -20.203125 C 5.734375 -20.578125 6.613281 -20.765625 7.6875 -20.765625 C 8.757812 -20.765625 9.609375 -20.570312 10.234375 -20.1875 C 10.867188 -19.8125 11.332031 -19.3125 11.625 -18.6875 C 11.925781 -18.0625 12.078125 -17.398438 12.078125 -16.703125 C 12.078125 -15.878906 11.9375 -15.15625 11.65625 -14.53125 C 11.382812 -13.90625 10.953125 -13.347656 10.359375 -12.859375 C 9.765625 -12.378906 8.988281 -11.914062 8.03125 -11.46875 L 12.3125 -5.9375 C 12.539062 -6.78125 12.695312 -7.644531 12.78125 -8.53125 C 12.863281 -9.425781 12.90625 -10.234375 12.90625 -10.953125 L 12.90625 -12.078125 L 17.40625 -12.078125 L 17.40625 -10.90625 L 17.15625 -10.90625 C 16.8125 -10.90625 16.46875 -10.867188 16.125 -10.796875 C 15.78125 -10.734375 15.476562 -10.570312 15.21875 -10.3125 C 14.957031 -10.050781 14.757812 -9.625 14.625 -9.03125 C 14.476562 -8.363281 14.304688 -7.660156 14.109375 -6.921875 C 13.921875 -6.191406 13.679688 -5.460938 13.390625 -4.734375 L 15.75 -1.921875 C 16 -1.617188 16.285156 -1.414062 16.609375 -1.3125 C 16.929688 -1.21875 17.378906 -1.171875 17.953125 -1.171875 L 18.1875 -1.171875 L 18.1875 0 L 14.078125 0 L 12.078125 -2.578125 C 11.710938 -2.066406 11.269531 -1.585938 10.75 -1.140625 C 10.238281 -0.703125 9.648438 -0.351562 8.984375 -0.09375 C 8.328125 0.15625 7.570312 0.28125 6.71875 0.28125 Z M 7.140625 -1.296875 C 8.035156 -1.296875 8.820312 -1.519531 9.5 -1.96875 C 10.1875 -2.414062 10.75 -2.972656 11.1875 -3.640625 L 5.828125 -10.53125 C 5.367188 -10.238281 4.96875 -9.878906 4.625 -9.453125 C 4.28125 -9.035156 4.003906 -8.519531 3.796875 -7.90625 C 3.597656 -7.300781 3.5 -6.566406 3.5 -5.703125 C 3.5 -4.253906 3.832031 -3.15625 4.5 -2.40625 C 5.175781 -1.664062 6.054688 -1.296875 7.140625 -1.296875 Z M 7.171875 -12.484375 C 8.128906 -12.972656 8.832031 -13.535156 9.28125 -14.171875 C 9.726562 -14.816406 9.953125 -15.648438 9.953125 -16.671875 C 9.953125 -17.453125 9.769531 -18.109375 9.40625 -18.640625 C 9.039062 -19.179688 8.476562 -19.453125 7.71875 -19.453125 C 6.96875 -19.453125 6.394531 -19.191406 6 -18.671875 C 5.613281 -18.160156 5.421875 -17.484375 5.421875 -16.640625 C 5.421875 -16.160156 5.476562 -15.703125 5.59375 -15.265625 C 5.707031 -14.835938 5.894531 -14.398438 6.15625 -13.953125 C 6.414062 -13.503906 6.753906 -13.015625 7.171875 -12.484375 Z M 7.171875 -12.484375 "/></g></g></g><g fill="#000000" fill-opacity="1"><g transform="translate(134.956772, 332.53381)"><g/></g></g><g fill="#000000" fill-opacity="1"><g transform="translate(141.641809, 332.53381)"><g><path d="M 6.390625 0.28125 C 5.492188 0.28125 4.710938 0.1875 4.046875 0 C 3.390625 -0.1875 2.847656 -0.457031 2.421875 -0.8125 C 1.992188 -1.164062 1.671875 -1.582031 1.453125 -2.0625 C 1.242188 -2.539062 1.140625 -3.066406 1.140625 -3.640625 C 1.140625 -4.046875 1.222656 -4.394531 1.390625 -4.6875 C 1.554688 -4.988281 1.773438 -5.21875 2.046875 -5.375 C 2.328125 -5.539062 2.664062 -5.625 3.0625 -5.625 C 3.101562 -4.757812 3.257812 -3.976562 3.53125 -3.28125 C 3.8125 -2.582031 4.210938 -2.035156 4.734375 -1.640625 C 5.253906 -1.253906 5.875 -1.0625 6.59375 -1.0625 C 7.644531 -1.0625 8.457031 -1.367188 9.03125 -1.984375 C 9.601562 -2.609375 9.890625 -3.488281 9.890625 -4.625 C 9.890625 -5.40625 9.75 -6.054688 9.46875 -6.578125 C 9.195312 -7.109375 8.773438 -7.585938 8.203125 -8.015625 C 7.628906 -8.441406 6.875 -8.890625 5.9375 -9.359375 C 4.957031 -9.867188 4.144531 -10.410156 3.5 -10.984375 C 2.851562 -11.554688 2.367188 -12.21875 2.046875 -12.96875 C 1.734375 -13.726562 1.578125 -14.632812 1.578125 -15.6875 C 1.578125 -16.71875 1.816406 -17.609375 2.296875 -18.359375 C 2.773438 -19.117188 3.421875 -19.707031 4.234375 -20.125 C 5.046875 -20.550781 5.96875 -20.765625 7 -20.765625 C 8.007812 -20.765625 8.863281 -20.609375 9.5625 -20.296875 C 10.257812 -19.984375 10.789062 -19.582031 11.15625 -19.09375 C 11.519531 -18.601562 11.703125 -18.082031 11.703125 -17.53125 C 11.703125 -16.914062 11.523438 -16.460938 11.171875 -16.171875 C 10.816406 -15.890625 10.304688 -15.75 9.640625 -15.75 C 9.640625 -16.382812 9.535156 -16.976562 9.328125 -17.53125 C 9.128906 -18.082031 8.820312 -18.53125 8.40625 -18.875 C 7.988281 -19.21875 7.441406 -19.390625 6.765625 -19.390625 C 5.847656 -19.390625 5.144531 -19.085938 4.65625 -18.484375 C 4.175781 -17.878906 3.9375 -17.0625 3.9375 -16.03125 C 3.9375 -15.320312 4.050781 -14.710938 4.28125 -14.203125 C 4.507812 -13.703125 4.898438 -13.242188 5.453125 -12.828125 C 6.003906 -12.421875 6.757812 -11.96875 7.71875 -11.46875 C 8.707031 -10.988281 9.539062 -10.472656 10.21875 -9.921875 C 10.90625 -9.367188 11.425781 -8.734375 11.78125 -8.015625 C 12.132812 -7.296875 12.3125 -6.421875 12.3125 -5.390625 C 12.3125 -4.171875 12.0625 -3.144531 11.5625 -2.3125 C 11.0625 -1.476562 10.363281 -0.835938 9.46875 -0.390625 C 8.582031 0.0546875 7.554688 0.28125 6.390625 0.28125 Z M 6.390625 0.28125 "/></g></g></g><g fill="#000000" fill-opacity="1"><g transform="translate(155.069274, 332.53381)"><g><path d="M 0.890625 0 L 0.890625 -1.171875 L 1.296875 -1.171875 C 1.660156 -1.171875 1.988281 -1.21875 2.28125 -1.3125 C 2.570312 -1.414062 2.800781 -1.613281 2.96875 -1.90625 C 3.132812 -2.207031 3.21875 -2.648438 3.21875 -3.234375 L 3.21875 -17.359375 C 3.21875 -17.929688 3.128906 -18.351562 2.953125 -18.625 C 2.785156 -18.90625 2.5625 -19.085938 2.28125 -19.171875 C 2 -19.265625 1.675781 -19.3125 1.3125 -19.3125 L 0.890625 -19.3125 L 0.890625 -20.484375 L 7.953125 -20.484375 C 10.066406 -20.484375 11.625 -19.957031 12.625 -18.90625 C 13.632812 -17.851562 14.140625 -16.378906 14.140625 -14.484375 C 14.140625 -13.628906 14.019531 -12.8125 13.78125 -12.03125 C 13.539062 -11.257812 13.15625 -10.5625 12.625 -9.9375 C 12.101562 -9.320312 11.410156 -8.835938 10.546875 -8.484375 C 9.691406 -8.140625 8.644531 -7.96875 7.40625 -7.96875 L 5.9375 -7.96875 L 5.9375 -3.09375 C 5.9375 -2.539062 6.023438 -2.125 6.203125 -1.84375 C 6.390625 -1.570312 6.628906 -1.390625 6.921875 -1.296875 C 7.222656 -1.210938 7.546875 -1.171875 7.890625 -1.171875 L 8.640625 -1.171875 L 8.640625 0 Z M 7.171875 -9.296875 C 7.898438 -9.296875 8.519531 -9.382812 9.03125 -9.5625 C 9.550781 -9.75 9.972656 -10.046875 10.296875 -10.453125 C 10.617188 -10.867188 10.863281 -11.394531 11.03125 -12.03125 C 11.195312 -12.675781 11.28125 -13.457031 11.28125 -14.375 C 11.28125 -15.976562 10.988281 -17.171875 10.40625 -17.953125 C 9.832031 -18.742188 8.878906 -19.140625 7.546875 -19.140625 L 5.9375 -19.140625 L 5.9375 -9.296875 Z M 7.171875 -9.296875 "/></g></g></g><g fill="#000000" fill-opacity="1"><g transform="translate(170.01738, 332.53381)"><g><path d="M 0.03125 0 L 0.03125 -1.171875 L 0.453125 -1.171875 C 0.785156 -1.171875 1.050781 -1.226562 1.25 -1.34375 C 1.445312 -1.457031 1.628906 -1.675781 1.796875 -2 C 1.972656 -2.332031 2.160156 -2.800781 2.359375 -3.40625 L 7.75 -20.484375 L 9.890625 -20.484375 L 15.4375 -2.546875 C 15.550781 -2.191406 15.675781 -1.914062 15.8125 -1.71875 C 15.957031 -1.53125 16.144531 -1.390625 16.375 -1.296875 C 16.601562 -1.210938 16.882812 -1.171875 17.21875 -1.171875 L 17.46875 -1.171875 L 17.46875 0 L 10.5 0 L 10.5 -1.171875 L 11.078125 -1.171875 C 11.566406 -1.171875 11.929688 -1.273438 12.171875 -1.484375 C 12.410156 -1.703125 12.53125 -2 12.53125 -2.375 C 12.53125 -2.507812 12.515625 -2.65625 12.484375 -2.8125 C 12.460938 -2.96875 12.429688 -3.140625 12.390625 -3.328125 C 12.347656 -3.515625 12.300781 -3.695312 12.25 -3.875 L 11.359375 -6.890625 L 5.015625 -6.890625 L 4.1875 -4.078125 C 4.132812 -3.921875 4.085938 -3.742188 4.046875 -3.546875 C 4.003906 -3.359375 3.960938 -3.175781 3.921875 -3 C 3.890625 -2.832031 3.875 -2.664062 3.875 -2.5 C 3.875 -2.09375 4 -1.769531 4.25 -1.53125 C 4.5 -1.289062 4.898438 -1.171875 5.453125 -1.171875 L 6.078125 -1.171875 L 6.078125 0 Z M 5.515625 -8.296875 L 10.90625 -8.296875 L 9.375 -13.625 C 9.226562 -14.195312 9.078125 -14.734375 8.921875 -15.234375 C 8.765625 -15.742188 8.632812 -16.21875 8.53125 -16.65625 C 8.425781 -17.101562 8.328125 -17.507812 8.234375 -17.875 C 8.160156 -17.507812 8.066406 -17.109375 7.953125 -16.671875 C 7.847656 -16.242188 7.734375 -15.804688 7.609375 -15.359375 C 7.492188 -14.910156 7.347656 -14.425781 7.171875 -13.90625 Z M 5.515625 -8.296875 "/></g></g></g><g clip-path="url(#c3fe63d3cf)"><path fill="#a6a6a6" d="M 53.429688 112.800781 C 38.890625 113.558594 38.273438 114.179688 37.515625 128.714844 C 36.746094 114.179688 36.128906 113.558594 21.589844 112.800781 C 36.128906 112.03125 36.746094 111.414062 37.515625 96.875 C 38.273438 111.414062 38.890625 112.03125 53.429688 112.800781 Z M 53.429688 112.800781 " fill-opacity="1" fill-rule="nonzero"/></g></svg>